# xmcd CD database file
# Generated: Wed Nov 26 10:41:17 2003 by KSCD
# 
# Track frame offsets:
#       150
#       16150
#       30945
#       53630
#       67187
#       85877
#       105032
#       122992
#       139407
#       158359
#       179487
#       196467
#       213877
#
# Disc length: 3123 seconds
#
# Revision: 1
# Processed by: cddbd v1.4PL0 Copyright (c) Steve Scherf et al.
# Submitted via: Kscd 1.3.3
#
DISCID=a50c310d
DTITLE=Kieran Goss - Red-Letter Day
DYEAR=1900
DGENRE=
TTITLE0=Hand Upon My Heart
TTITLE1=Our Love Endures
TTITLE2=I Came Through
TTITLE3=Moments in Time
TTITLE4=Fire from the Flame
TTITLE5=Time That's In Between
TTITLE6=Unconditionally Yours
TTITLE7=I Don't Want to Leave You
TTITLE8=Reasons to Leave (Heaven on Earth)
TTITLE9=Easy Way
TTITLE10=Red-Letter Day
TTITLE11=Big Tough World
TTITLE12=Tell Me Why
EXTD=
EXTT0=
EXTT1=
EXTT2=
EXTT3=
EXTT4=
EXTT5=
EXTT6=
EXTT7=
EXTT8=
EXTT9=
EXTT10=
EXTT11=
EXTT12=
PLAYORDER=
